<?xml version="1.0" encoding="utf-8"?>
<!-- Generator: Adobe Illustrator 19.0.0, SVG Export Plug-In . SVG Version: 6.00 Build 0)  -->
<svg version="1.1" id="Layer_1" xmlns="http://www.w3.org/2000/svg" xmlns:xlink="http://www.w3.org/1999/xlink" x="0px" y="0px"
	 viewBox="-354.3 262.3 68.6 71" style="enable-background:new -354.3 262.3 68.6 71;" xml:space="preserve">
<path d="M-285.7,328.5c-3-12.3-14.1-12.1-15.1-12.1c-0.8,0-1.5-0.1-2.1-0.1c-0.2,0-0.5,0-0.7,0c-1-1.2-1.5-2.3-1.4-3.5
	c0.2-1.8,1.6-3.1,2.1-3.5c1.4,1,2.6,1.7,3.8,1.7c0,0,0,0,0.1,0c1.5,0,2.6-0.3,3.3-0.8c3.6-1.7,6-5.2,6.8-9.9
	c0.1-0.5-0.3-1.1-0.8-1.2s-1.1,0.3-1.2,0.8c-0.5,3.1-1.8,5.6-3.8,7.2c-0.5-2.1-2.5-4.6-4.7-7.2c-1.4-1.8-2.9-3.6-3.3-4.6
	c-0.9-2.5-2.8-4.4-4.8-6l-1-0.9c-2.7-2.3-5.6-3.5-8.8-4.7c-0.6-0.2-1.1-0.4-1.7-0.7c-0.4-0.2-0.8-0.5-1.1-0.9l-2.9-4
	c-2-2.3-4.6-6.8-5.4-14.9c-0.1-0.5-0.5-0.9-1.1-0.9c-0.5,0.1-0.9,0.5-0.9,1.1c0.9,8.6,3.7,13.5,5.9,15.9l2.9,3.9
	c0.5,0.7,1.2,1.2,2,1.6c0.6,0.2,1.1,0.4,1.7,0.7c3,1.2,5.8,2.3,8.2,4.3l1,0.9c1.8,1.6,3.5,3.2,4.2,5.2c0.5,1.4,1.9,3.2,3.6,5.2
	c1.8,2.2,4.8,5.9,4.3,7.1c0,0.1-0.1,0.1-0.2,0.2h-0.1c-0.1,0-0.2,0.1-0.2,0.1l-0.1,0.1c-0.4,0.2-1.1,0.3-1.9,0.3l0,0
	c-0.9,0-2.6-1.3-4.2-2.4c-2.6-1.9-5.4-3.9-8.1-3.8c0.2-1,0.6-1.5,0.7-1.5c0.3-0.4,0.3-1.1-0.2-1.4c-0.4-0.3-1.1-0.3-1.4,0.2
	c-0.1,0.1-2.1,2.7-0.9,7.1c1,3.4,4,8.5,6.9,10.8c0.6,0.4,1.5,0.5,3.4,0.5c2,0.1,4.8,0.1,7,0.9c1.8,0.7,1.8,1.5,1.9,2.6
	c0,0.2,0,0.3,0,0.5c0,0-0.1,0.2-0.6,0.4c-2.6,1.3-10.6,1.4-13.5,0.5c-2.8-0.9-5.2-4.8-6.8-7.3c-0.3-0.5-0.6-1-0.9-1.4
	c-0.3-0.5-0.9-0.6-1.4-0.3c-0.5,0.3-0.6,0.9-0.3,1.4c0.3,0.4,0.6,0.9,0.9,1.4c1.8,2.9,4.4,7,7.9,8.1c1.4,0.5,3.9,0.7,6.6,0.7
	c0.1,0,0.2,0,0.3,0c-1.2,1.8-3.4,4.1-5.5,4.1c-4.2,0-12.4-7.1-13.9-10.6c-0.2-0.5-0.8-0.8-1.3-0.5c-0.5,0.2-0.8,0.8-0.5,1.3
	c1.2,2.9,5.8,7.5,10.3,10.1l0,0c0,0-3.1,2.3-7.2-0.1c-1.9-1.1-4.7-3.4-6.9-5.6c-3.6-3.7-5.5-6.3-6.5-10.8
	c-1.2-5.3-3.4-11.7-4.2-14.2c-0.2-0.5-0.3-0.8-0.3-0.8l-0.1-0.2c-0.7-3-2.3-9.3-13.8-20.4c-0.3-0.3-0.6-0.6-0.9-0.9
	c-0.4-0.4-1-0.4-1.4,0s-0.4,1,0,1.4c0.3,0.3,0.6,0.6,0.9,0.9c11.1,10.7,12.5,16.6,13.2,19.4l0.1,0.2c0,0.1,0.1,0.4,0.3,1
	c0.8,2.4,3,8.8,4.2,14c1.1,4.9,3.3,7.8,7,11.8c2.3,2.4,5.3,4.8,7.3,6c1.8,1,3.4,1.3,4.8,1.3c2.7,0,4.5-1.3,4.6-1.4
	c0.3-0.2,0.4-0.5,0.4-0.8c1.4,0.6,2.7,1,3.8,1c4,0,7.1-4.8,8-6.2c2.7-0.2,5.3-0.7,6.5-1.7c0.8-0.7,1-1.4,0.9-1.9c0-0.1,0-0.3,0-0.4
	s0-0.3,0-0.4c1.9,1.6,3.5,4,4.4,7.6c0.1,0.5,0.5,0.8,1,0.8c0.1,0,0.2,0,0.2,0C-285.9,329.6-285.6,329.1-285.7,328.5z M-311.4,306.5
	c-0.2-0.7-0.3-1.2-0.3-1.8c2-0.3,4.7,1.7,7.1,3.4c-0.8,0.8-2.2,2.4-2.4,4.5c-0.1,0.7,0,1.3,0.2,2
	C-308.8,312.3-310.7,308.9-311.4,306.5z"/>
</svg>
